<svg xmlns="http://www.w3.org/2000/svg" xml:space="preserve" width="800" height="800" viewBox="0 0 512 512"><path d="M156.856 87.646C83.163 120.543 32.499 190.231 32.499 278.054c0 123.427 100.073 223.502 223.502 223.502s223.502-100.075 223.502-223.502c0-87.796-50.633-157.466-124.288-190.378l-198.359-.03z" style="fill:#f7222b"/><path d="M358.344 129.61c-15.29-18.454-26.909-28.39-38.754-33.711l7.951 1.233c40.209-7.311 66.319-43.865 71.542-86.685-13.577 20.888-72.064 5.222-102.351 17.755C266.479 40.72 256.025 84.495 256 84.597c-.024-.101-10.478-43.877-40.732-56.396-30.288-12.533-88.774 3.133-102.351-17.755 5.222 42.82 31.332 79.374 71.541 86.685l7.952-1.233c-11.845 5.321-23.464 15.259-38.754 33.711-20.191 24.369-51.523 18.799-51.523 18.799s37.598 81.116 115.581 45.257c27.071-12.448 36.198-33.106 38.199-51.688l.178.028c2.007 18.575 11.139 39.218 38.196 51.66 77.982 35.857 115.581-45.257 115.581-45.257s-31.332 5.571-51.524-18.798z" style="fill:#4bdd6b"/><path d="M453.645 156.455c-19.922-29.617-47.304-54.031-79.792-71.291 18.977-17.329 31.889-43.047 35.596-73.454a10.444 10.444 0 0 0-19.124-6.956c-4.603 7.081-26.518 7.217-44.126 7.325-18.877.116-38.395.237-53.462 6.471-9.735 4.028-18.629 11.13-26.294 20.865V26.461c0-5.768-4.676-10.444-10.444-10.444s-10.444 4.676-10.444 10.444v12.947c-6.728-8.576-15.363-16.334-26.294-20.858-15.067-6.234-34.585-6.354-53.462-6.471-17.609-.109-39.523-.243-44.126-7.325a10.443 10.443 0 0 0-19.124 6.956c3.709 30.408 16.621 56.126 35.598 73.455-32.477 17.254-59.85 41.654-79.771 71.258-23.762 35.313-36.323 77.372-36.323 121.631 0 62.486 24.336 121.233 68.524 165.422S193.514 512 256 512s121.233-24.336 165.422-68.524 68.524-102.936 68.524-165.422c.001-44.244-12.552-86.293-36.301-121.599zm-42.035-18.32a10.442 10.442 0 0 0-3.571-.009c-.254.046-25.528 4.281-41.653-15.18-6.969-8.411-13.332-15.204-19.361-20.702a88.457 88.457 0 0 0 7.41-3.441c21.887 10.232 41.072 23.542 57.175 39.332zM127.895 30.426c11.035 2.375 24.211 2.456 37.779 2.54 16.868.104 34.312.212 45.604 4.885 22.561 9.335 32.529 41.767 34.28 48.099v15.693c0 5.768 4.676 10.444 10.444 10.444 5.768 0 10.444-4.676 10.444-10.444V85.949c1.76-6.356 11.734-38.768 34.28-48.098 11.292-4.673 28.735-4.78 45.604-4.885 13.568-.084 26.744-.165 37.779-2.54-9.663 30.142-31.189 51.475-58.434 56.429-.196.036-.384.089-.575.135-13.406-6.372-26.862-7.512-44.039-7.512-5.768 0-10.444 4.676-10.444 10.444 0 5.768 4.676 10.444 10.444 10.444 27.385 0 40.695 1.452 69.244 35.907 12.581 15.185 28.59 20.655 41.114 22.399-14.046 19.157-44.626 47.64-92.765 25.505-19.199-8.828-30.025-23.395-32.176-43.294a10.445 10.445 0 0 0-8.753-9.194l-.178-.028a10.443 10.443 0 0 0-12.015 9.198c-2.145 19.912-12.971 34.486-32.179 43.318-48.147 22.139-78.725-6.355-92.766-25.505 12.522-1.745 28.535-7.217 41.114-22.399 28.549-34.455 41.859-35.907 69.244-35.907 5.768 0 10.444-4.676 10.444-10.444 0-5.768-4.676-10.444-10.444-10.444-17.178 0-30.633 1.14-44.039 7.512-.191-.046-.379-.099-.575-.135-27.249-4.953-48.774-26.285-58.436-56.429zm37.082 71.818c-6.03 5.498-12.392 12.292-19.361 20.702-15.918 19.21-40.664 15.343-41.653 15.179a10.392 10.392 0 0 0-3.571.008c16.104-15.789 35.289-29.098 57.177-39.33a88.1 88.1 0 0 0 7.408 3.441zm91.024 388.869c-117.48 0-213.058-95.577-213.058-213.058 0-50.441 17.47-95.895 48.83-130.905a10.415 10.415 0 0 0 .886 5.651c.425.916 10.636 22.629 31.376 39.739 19.777 16.316 52.839 31.4 98.043 10.615 14.955-6.876 26.368-16.674 33.923-28.966 7.556 12.292 18.969 22.091 33.923 28.966 15.746 7.241 30.016 10.129 42.768 10.129 23.855-.001 42.387-10.111 55.275-20.743 20.74-17.11 30.951-38.824 31.376-39.739a10.44 10.44 0 0 0 .887-5.649c31.359 35.011 48.829 80.465 48.829 130.902 0 117.479-95.578 213.058-213.058 213.058z"/><path d="M160.041 400.439c-27.742-22.618-46.686-54.316-53.338-89.257-1.079-5.666-6.548-9.382-12.213-8.306-5.666 1.079-9.385 6.547-8.306 12.213 7.571 39.76 29.113 75.821 60.659 101.539a10.402 10.402 0 0 0 6.593 2.35 10.42 10.42 0 0 0 8.1-3.845c3.645-4.472 2.975-11.05-1.495-14.694zM93.572 293.136c5.768 0 10.444-4.676 10.444-10.444v-.116c0-5.768-4.676-10.444-10.444-10.444-5.768 0-10.444 4.676-10.444 10.444v.116c0 5.768 4.676 10.444 10.444 10.444z"/></svg>